<?xml version="1.0" encoding="iso-8859-1" standalone="no"?>
<!DOCTYPE svg PUBLIC "-//W3C//DTD SVG 1.0//EN" "http://www.w3.org/TR/2001/REC-SVG-20010904/DTD/svg10.dtd">
<svg xmlns="http://www.w3.org/2000/svg" width="273" height="300">
<path style="fill:red;fill-opacity:1.0;fill-rule:evenodd;stroke:black;stroke-width:1.0;" d="M 57.9642, 186.081 L 62.0491, 190.745 L 66.5714, 194.986 L 71.4877, 198.764 L 76.7505, 202.041 L 77.2938, 202.309 L 91.4227, 251.906 L 64.0543, 265.496 L 34.0633, 196.171 L 27.3912, 189.36 L 54.7355, 181.57 z "/>
<path style="fill:green;fill-opacity:1.0;fill-rule:evenodd;stroke:black;stroke-width:1.0;" d="M 38.2025, 155.255 L 36.3407, 161.169 L 35.0675, 167.237 L 34.3951, 173.4 L 34.3301, 179.599 L 34.3872, 180.249 L 6.88103, 173.052 L 0, 145.13 L 38.2522, 155.139 z "/>
<path style="fill:blue;fill-opacity:1.0;fill-rule:evenodd;stroke:black;stroke-width:1.0;" d="M 82.0751, 105.935 L 81.6058, 106.318 L 77.2111, 110.691 L 73.2661, 115.474 L 69.809, 120.62 L 66.873, 126.081 L 64.4863, 131.803 L 62.672, 137.731 L 61.4725, 143.685 L 21.985, 141.647 L 5.92008, 108.048 L 75.6854, 79.0942 L 83.8611, 71.3211 z "/>
<path style="fill:yellow;fill-opacity:1.0;fill-rule:evenodd;stroke:black;stroke-width:1.0;" d="M 72.7325, 253.313 L 77.1162, 257.698 L 80.28, 260.294 L 74.4563, 299.537 L 61.614, 300 L 69.1841, 248.989 z "/>
<path style="fill:red;fill-opacity:1.0;fill-rule:evenodd;stroke:black;stroke-width:1.0;" d="M 74.9725, 37.2313 L 72.0909, 40.1381 L 68.1786, 44.9476 L 65.0911, 49.6122 L 56.5235, 16.0282 L 65.4746, 0 z "/>
<path style="fill:green;fill-opacity:1.0;fill-rule:evenodd;stroke:black;stroke-width:1.0;" d="M 227.804, 195.582 L 206.053, 267.918 L 134.962, 242.393 L 102.843, 243.101 L 109.215, 203.945 L 110.825, 205.304 L 115.931, 208.82 L 121.357, 211.82 L 127.051, 214.272 L 132.958, 216.155 L 139.021, 217.45 L 145.182, 218.145 L 151.381, 218.232 L 157.559, 217.711 L 163.656, 216.587 L 169.614, 214.871 L 175.374, 212.579 L 180.883, 209.734 L 186.086, 206.362 L 190.933, 202.497 L 195.378, 198.175 L 199.378, 193.438 L 202.895, 188.332 L 205.579, 183.476 L 233.642, 188.043 z "/>
<path style="fill:blue;fill-opacity:1.0;fill-rule:evenodd;stroke:black;stroke-width:1.0;" d="M 264.646, 173.906 L 236.62, 178.694 L 236.733, 178.052 L 237.205, 171.87 L 237.069, 165.672 L 236.326, 159.517 L 234.983, 153.464 L 234.944, 153.344 L 273.919, 146.685 z "/>
<path style="fill:yellow;fill-opacity:1.0;fill-rule:evenodd;stroke:black;stroke-width:1.0;" d="M 190.675, 78.6705 L 257.995, 112.927 L 239.382, 145.185 L 199.856, 144.166 L 199.12, 138.138 L 197.769, 132.087 L 195.831, 126.198 L 193.326, 120.527 L 190.277, 115.128 L 186.713, 110.055 L 182.669, 105.356 L 178.184, 101.075 L 173.301, 97.2547 L 168.067, 93.9313 L 162.533, 91.137 L 156.751, 88.8986 L 150.778, 87.2376 L 144.671, 86.1702 L 138.489, 85.7064 L 132.29, 85.851 L 126.136, 86.6023 L 120.085, 87.9532 L 114.196, 89.8907 L 108.525, 92.3962 L 106.691, 93.4323 L 107.681, 55.0214 L 140.117, 22.5512 z "/>
</svg>